<svg xmlns="http://www.w3.org/2000/svg" xml:space="preserve" style="enable-background:new 0 0 50 50" viewBox="0 0 50 50"><path d="M25 1A24 24 0 0 0 9 42.9l.3.3.2.1a24.5 24.5 0 0 0 3.2 2.3l.3.2 1.7.9a23.5 23.5 0 0 0 6 2h.1l2 .2h.2a24 24 0 0 0 4 0h.2c.7 0 1.3-.2 2-.3h.1l2-.4c1.4-.4 2.7-1 4-1.5l1.7-1h.3l1.5-1 .3-.3 1.4-1c0-.1 0-.2.2-.2l.3-.3A24 24 0 0 0 25 1zm0 24a8 8 0 1 1 0-16 8 8 0 0 1 0 16zm3 2c6 0 11 5 11 11v4h-.1l-1.2 1-.3.2-1.4.8-.2.2a21.8 21.8 0 0 1-7 2.5l-1.8.2h-.2a22.8 22.8 0 0 1-3.6 0H23a21.8 21.8 0 0 1-7-1.9h-.3a21.8 21.8 0 0 1-3-1.8l-.4-.2-1.2-1H11v-4c0-6 5-11 11-11h6zm13 13v-2a13 13 0 0 0-10.4-12.7 10 10 0 1 0-11.2 0A13 13 0 0 0 9 38v2A22 22 0 0 1 25 3a22 22 0 0 1 16 37z"/></svg>