<svg xmlns="http://www.w3.org/2000/svg" xml:space="preserve" id="Layer_1" x="0" y="0" style="enable-background:new 0 0 387.9 387.9" version="1.1" viewBox="0 0 387.9 387.9"><style>.st0{fill:#258ace}.st1{fill:#fdb735}.st2{fill:#36c136}.st3{fill:#fd2475}.st4{fill:#895ead}.st5{fill:#d83632}.st6{fill:#30d4a2}.st7{fill:#46cccc}.st8{fill:#4cc3cb}.st9{fill:#60b0e2}.st10{fill:none;stroke:#000;stroke-width:14;stroke-miterlimit:10}.st11{fill:#fff}</style><path d="M198 144.1h61.4c1.4 0 3.4-.7 4 1 .6 1.6-1.2 2.5-2.2 3.5-19.8 19.5-39.7 38.9-59.4 58.5-3 2.9-4.8 2.8-7.7-.1-19.6-19.5-39.4-38.8-59-58.2-1.1-1.1-3.3-1.9-2.5-3.8.8-1.8 3-.9 4.6-1l60.8.1z"/><path d="M197.4 243.8h-61c-1.7 0-4.1.9-5-1.1-.7-1.7 1.5-2.8 2.5-3.9l35.6-37.8c2-2.2 3.2-2.5 5.4-.2 6.4 6.6 13.1 12.8 19.5 19.4 2.6 2.7 4.4 2.6 7 0 6.4-6.5 13.1-12.8 19.5-19.3 1.8-1.9 2.9-1.8 4.7.1l37.2 39.1c.8.8 2.1 1.7 1.5 2.9-.6 1.5-2.3 1-3.6 1-21-.2-42.2-.2-63.3-.2zM272.8 193v36.9c0 1.6.8 3.7-.9 4.6-2 .9-2.8-1.3-3.8-2.4L232.5 195c-2-2-2.5-3.1-.1-5.4 12.1-11.6 24-23.5 36.1-35.3 1-.9 1.7-2.9 3.6-1.9 1.4.7.8 2.4.8 3.7l-.1 36.9zM123.1 193v-36.9c0-1.4-.7-3.3 1.2-3.9 1.5-.4 2.3 1.1 3.2 2 12 11.8 23.9 23.6 36 35.3 1.9 1.8 1.9 2.8.1 4.7-12.2 12.7-24.2 25.6-36.4 38.4-.9.9-1.6 2.5-3.1 1.9-1.5-.6-1-2.3-1-3.6V193z"/></svg>