<svg xmlns="http://www.w3.org/2000/svg" xml:space="preserve" width="512" height="512" style="shape-rendering:geometricPrecision;text-rendering:geometricPrecision;image-rendering:optimizeQuality;fill-rule:evenodd;clip-rule:evenodd"><defs><style>.fil0{fill:#000}</style></defs><g id="Layer_x0020_1"><g id="_476491816"><path d="M440 512H72c-20 0-36-16-36-36V36C36 16 52 0 72 0h368c20 0 36 16 36 36v440c0 20-16 36-36 36zM72 14c-12 0-22 10-22 22v440c0 12 10 22 22 22h368c12 0 22-10 22-22V36c0-12-10-22-22-22H72z" class="fil0"/><path d="M240 219H103c-4 0-7-3-7-7v-30c2-28 36-35 47-36l7-8c2-3 7-4 10-1 3 2 4 7 1 10l-8 11c-1 1-3 3-5 3-1 0-35 2-37 23v21h122v-21c-1-21-36-23-37-23-2 0-4-2-5-3l-8-11c-3-3-2-8 1-10 3-3 8-2 11 1l6 8c11 1 46 8 47 37v28c-1 5-4 8-8 8z" class="fil0"/><path d="M155 150c-4 0-8-3-8-7v-9c0-4 4-8 8-8s7 4 7 8v9c0 4-3 7-7 7zM188 150c-4 0-8-3-8-7v-10c0-4 4-7 8-7s7 3 7 7v10c0 4-3 7-7 7z" class="fil0"/><path d="M171 146c-21 0-37-16-37-37V96c-2-8-5-24 1-32 11-14 31-21 50-16 15 4 25 15 27 29v1c0 4-1 13-4 18v13c-1 20-17 37-37 37zm-22-49v12c0 12 10 22 22 22s22-10 22-22V96l-4-4s-1 1-2 1c-2 1-6 3-12 1-6-3-13-5-18-6l-8 9zm6-24h2s12 3 22 7v-1c0-3 1-6 4-8 3-1 7 0 9 2l5 6c-2-12-12-16-16-17-11-3-25-1-34 10 0 1-1 4 0 7l3-4c1-1 3-2 5-2zM412 466H100c-4 0-8-4-8-8s4-7 8-7h312c4 0 8 3 8 7s-4 8-8 8zM412 404H100c-4 0-8-3-8-7s4-8 8-8h312c4 0 8 4 8 8s-4 7-8 7zM412 342H100c-4 0-8-3-8-7s4-8 8-8h312c4 0 8 4 8 8s-4 7-8 7zM412 281H100c-4 0-8-3-8-8 0-4 4-7 8-7h312c4 0 8 4 8 8s-4 7-8 7zM412 219H266c-4 0-8-3-8-7s4-8 8-8h146c4 0 8 4 8 8s-4 7-8 7zM412 158H266c-4 0-8-3-8-7 0-5 4-8 8-8h146c4 0 8 3 8 8 0 4-4 7-8 7z" class="fil0"/></g></g></svg>