<svg xmlns="http://www.w3.org/2000/svg" xml:space="preserve" id="Icons" x="0" y="0" style="enable-background:new 0 0 32 32" version="1.1" viewBox="0 0 32 32"><style>.st0{fill:none;stroke:#000;stroke-width:2;stroke-linecap:round;stroke-linejoin:round;stroke-miterlimit:10}</style><path d="M28 20.6V25a2 2 0 0 1-2 2H6a2 2 0 0 1-2-2v-4.4" class="st0"/><path d="M16 24h0a2 2 0 0 1-2-2v-3h4v3a2 2 0 0 1-2 2z" class="st0"/><path d="M14 22H7a4 4 0 0 1-4-4v-8c0-1.1.9-2 2-2h22a2 2 0 0 1 2 2v8a4 4 0 0 1-4 4h-7M20 8h-8V6c0-1.1.9-2 2-2h4a2 2 0 0 1 2 2v2zM7 28v-1M25 28v-1" class="st0"/></svg>